<svg xmlns="http://www.w3.org/2000/svg" version="1.1" xmlns:xlink="http://www.w3.org/1999/xlink" xmlns:svgjs="http://svgjs.dev/svgjs" width="1000" height="1125" viewBox="0 0 1000 1125"><g transform="matrix(1,0,0,1,0,0)"><svg viewBox="0 0 320 360" data-background-color="#0c1d36" preserveAspectRatio="xMidYMid meet" height="1125" width="1000" xmlns="http://www.w3.org/2000/svg" xmlns:xlink="http://www.w3.org/1999/xlink"><g id="tight-bounds" transform="matrix(1,0,0,1,0,0)"><svg viewBox="0 0 320 360" height="360" width="320"><g><svg></svg></g><g><svg viewBox="0 0 320 360" height="360" width="320"><g><path xmlns="http://www.w3.org/2000/svg" d="M297.491 100.645c-12.426-21.51-112.674-79.355-137.491-79.355-24.817 0-125.028 57.845-137.491 79.355-11.591 20.02-11.591 138.726 0 158.746 12.463 21.474 112.674 79.319 137.491 79.319 24.817 0 125.064-57.845 137.491-79.355 11.591-20.02 11.591-138.69 0-158.71zM309.481 93.705c-14.461-24.998-119.469-86.295-149.481-86.295-30.012 0-135.02 61.297-149.481 86.295-14.025 24.199-14.025 148.391 0 172.59 14.461 24.998 119.469 86.295 149.481 86.295 30.012 0 135.02-61.297 149.481-86.259 14.025-24.235 14.025-148.427 0-172.626zM300.906 261.353c-12.753 22.055-115.472 81.317-140.906 81.318-25.434 0-128.153-59.298-140.906-81.354-11.881-20.529-11.881-142.178 0-162.707 12.753-22.019 115.472-81.281 140.906-81.281 25.434 0 128.153 59.298 140.906 81.318 11.881 20.529 11.881 142.178 0 162.706z" fill="#f9cc0b" fill-rule="nonzero" stroke="none" stroke-width="1" stroke-linecap="butt" stroke-linejoin="miter" stroke-miterlimit="10" stroke-dasharray="" stroke-dashoffset="0" font-family="none" font-weight="none" font-size="none" text-anchor="none" style="mix-blend-mode: normal" data-fill-palette-color="tertiary"></path></g><g transform="matrix(1,0,0,1,48,129.906605884203)"><svg viewBox="0 0 224 100.186788231594" height="100.186788231594" width="224"><g><svg viewBox="0 0 224 100.186788231594" height="100.186788231594" width="224"><g><svg viewBox="0 0 224 100.186788231594" height="100.186788231594" width="224"><g transform="matrix(1,0,0,1,0,61.9194544217298)"><svg viewBox="0 0 224 38.26733380986418" height="38.26733380986418" width="224"><g><svg viewBox="0 0 224 38.26733380986418" height="38.26733380986418" width="224"><g><svg viewBox="0 0 224 38.26733380986418" height="38.26733380986418" width="224"><g transform="matrix(1,0,0,1,0,0)"><svg width="224" viewBox="1.9000000953674316 -35.599998474121094 209.8300018310547 35.849998474121094" height="38.26733380986418" data-palette-color="#0c1d36"><path d="M10.2-14.2L10.2-14.2 9.45-12.1 22.5-12.1 21.75-14.25 16.05-31.1Q15.4-29.1 10.2-14.2ZM8.5-9.35L5.25 0 1.9 0 13.8-33.7 18.3-33.7 29.95 0 26.6 0 23.4-9.35 8.5-9.35ZM54.8-17.7L54.8 0 51.75 0 51.75-16.75Q51.75-19.7 50.25-21.25 48.75-22.8 46.3-22.8L46.3-22.8Q43.2-22.8 40.95-20.43 38.7-18.05 38.7-14L38.7-14 38.7 0 35.65 0 35.65-25.35 38.7-25.35 38.7-21Q41.05-25.75 46.75-25.75L46.75-25.75Q50.4-25.75 52.6-23.5 54.8-21.25 54.8-17.7L54.8-17.7ZM65.14-35.35L65.14 0 62.09 0 62.09-35.35 65.14-35.35ZM79.95-25.35L69.59-13.3 80.3 0 76.5 0 65.89-13.3 76.2-25.35 79.95-25.35ZM88.44-25.35L88.44 0 85.39 0 85.39-25.35 88.44-25.35ZM88.42-34.98Q89.04-34.35 89.04-33.45 89.04-32.55 88.42-31.95 87.79-31.35 86.89-31.35 85.99-31.35 85.39-31.95 84.79-32.55 84.79-33.45 84.79-34.35 85.39-34.98 85.99-35.6 86.89-35.6 87.79-35.6 88.42-34.98ZM108.39-3.8L108.39-0.7Q106.94 0.25 105.04 0.25L105.04 0.25Q97.84 0.25 97.84-7.15L97.84-7.15 97.84-22.75 93.69-22.75 93.69-25.35 97.84-25.35 97.84-31.7 100.94-31.7 100.94-25.35 108.19-25.35 108.19-22.75 100.94-22.75 100.94-7Q100.94-2.65 104.99-2.65L104.99-2.65Q106.99-2.65 108.39-3.8L108.39-3.8ZM121.79-2.55L121.79-2.55Q124.79-2.55 126.59-4.2 128.39-5.85 128.39-8.4L128.39-8.4 128.39-12.05 123.44-12.05Q119.89-12.05 118.14-10.68 116.39-9.3 116.39-7.25L116.39-7.25Q116.39-5.15 117.76-3.85 119.14-2.55 121.79-2.55ZM128.39 0L128.39-2.95Q126.29 0.25 121.09 0.25L121.09 0.25Q117.59 0.25 115.36-1.83 113.14-3.9 113.14-7.15L113.14-7.15Q113.14-10.8 115.96-12.83 118.79-14.85 123.44-14.85L123.44-14.85 128.39-14.85 128.39-16Q128.39-19.4 126.94-21.13 125.49-22.85 122.09-22.85L122.09-22.85Q118.14-22.85 114.99-20.7L114.99-20.7 114.99-24Q117.89-25.75 122.14-25.75L122.14-25.75Q131.44-25.75 131.44-16L131.44-16 131.44 0 128.39 0ZM160.48-33.7L160.48-8.25Q160.48 0 153.13 0L153.13 0Q150.43 0 148.53-1.15L148.53-1.15 148.53-4.3Q150.53-2.95 152.83-2.95L152.83-2.95Q157.38-2.95 157.38-7.75L157.38-7.75 157.38-33.7 160.48-33.7ZM187.43-17.7L187.43 0 184.38 0 184.38-16.75Q184.38-19.7 182.88-21.25 181.38-22.8 178.93-22.8L178.93-22.8Q175.83-22.8 173.58-20.43 171.33-18.05 171.33-14L171.33-14 171.33 0 168.28 0 168.28-35.35 171.33-35.35 171.33-21Q173.63-25.75 179.38-25.75L179.38-25.75Q183.03-25.75 185.23-23.5 187.43-21.25 187.43-17.7L187.43-17.7ZM202.08-2.55L202.08-2.55Q205.08-2.55 206.88-4.2 208.68-5.85 208.68-8.4L208.68-8.4 208.68-12.05 203.73-12.05Q200.18-12.05 198.43-10.68 196.68-9.3 196.68-7.25L196.68-7.25Q196.68-5.15 198.05-3.85 199.43-2.55 202.08-2.55ZM208.68 0L208.68-2.95Q206.58 0.25 201.38 0.25L201.38 0.25Q197.88 0.25 195.65-1.83 193.43-3.9 193.43-7.15L193.43-7.15Q193.43-10.8 196.25-12.83 199.08-14.85 203.73-14.85L203.73-14.85 208.68-14.85 208.68-16Q208.68-19.4 207.23-21.13 205.78-22.85 202.38-22.85L202.38-22.85Q198.43-22.85 195.28-20.7L195.28-20.7 195.28-24Q198.18-25.75 202.43-25.75L202.43-25.75Q211.73-25.75 211.73-16L211.73-16 211.73 0 208.68 0Z" opacity="1" transform="matrix(1,0,0,1,0,0)" fill="#0c1d36" class="undefined-text-0" data-fill-palette-color="quaternary" id="text-0"></path></svg></g></svg></g></svg></g></svg></g><g transform="matrix(1,0,0,1,70.71979922959024,0)"><svg viewBox="0 0 82.56040154081953 52.88545532523231" height="52.88545532523231" width="82.56040154081953"><g><svg xmlns="http://www.w3.org/2000/svg" xmlns:xlink="http://www.w3.org/1999/xlink" version="1.1" x="0" y="0" viewBox="111.69998931884766 20.884868621826172 92.91011810302734 59.515140533447266" enable-background="new 109 0 100 100" xml:space="preserve" height="52.88545532523231" width="82.56040154081953" class="icon-icon-0" data-fill-palette-color="quaternary" id="icon-0"><g fill="#0c1d36" data-fill-palette-color="quaternary"><path d="M138.2 33.6c3.9-1.7 2.9-4.2 4.6-5.1 1.1-0.6 1.9 0.3 2.6 0.5-0.1 0.4-0.1 0.8-0.2 1.3-0.3 5.5 3.9 10.2 9.4 10.5 5.5 0.3 10.2-3.9 10.5-9.4 0.3-5.5-3.9-10.2-9.4-10.5-3.7-0.2-7 1.6-8.9 4.4-0.5-1-1.5-2.5-3.1-3-2.8-0.9-6 0.4-7.7 2.6-1.7 2.2-1.7 6.6-6.4 7.6C127.6 33 134.7 35.2 138.2 33.6z" fill="#0c1d36" data-fill-palette-color="quaternary"></path><path d="M176.9 67.4c0-3-2.3-4.4-5.2-4.4h-15.9L149 44.7l0 0c-1-3.2-4-5.6-7.6-5.6-1.3 0-2.5 0.3-3.6 0.9l0 0c-14.5 7.3-22.9 20.7-26.1 40.4l19 0c0.5-8.3 2-18 8.8-23.8l7.8 11.7 0 0c0.9 1.7 2.7 3 4.7 3h19.6C174.7 71.2 176.9 70.4 176.9 67.4z" fill="#0c1d36" data-fill-palette-color="quaternary"></path></g><path d="M181.5 76.3c-0.4-0.8-2.3-4-6.2-4-4.4 0-6.2 4.1-6.3 4.2-0.1 0.3-0.1 0.7 0.1 0.9 0.2 0.3 0.5 0.5 0.8 0.5h10.7c0 0 0 0 0 0 0.6 0 1-0.4 1-1C181.7 76.7 181.6 76.4 181.5 76.3z" fill="#0c1d36" data-fill-palette-color="quaternary"></path><path d="M202.5 28.5c-1.8-0.8-3.8 0.1-4.6 1.9l-15.1 35.4c-0.8 1.8 0.1 3.8 1.9 4.6 0.4 0.2 0.9 0.3 1.4 0.3 1.4 0 2.7-0.8 3.2-2.1l2.7-6.4 5.1 10.6H190c-1.4 0-2.5 1.1-2.5 2.5s1.1 2.5 2.5 2.5h11.1c0.9 0 1.7-0.4 2.1-1.2 0.5-0.7 0.5-1.6 0.1-2.4L194.6 56l9.7-22.9C205.1 31.3 204.3 29.3 202.5 28.5z" fill="#0c1d36" data-fill-palette-color="quaternary"></path></svg></g></svg></g><g></g></svg></g></svg></g></svg></g></svg></g><defs><mask id="24d99e45-5ae3-48a8-b850-9ec807bf87f9"><rect width="640" height="400" fill="white"></rect><rect width="348.05760000000004" height="79.5776804063245" fill="black" x="145.97119999999998" y="160.21115979683776" id="transform-me" transform="matrix(1,0,0,1,-96,-20)"></rect></mask></defs></svg><rect width="320" height="360" fill="none" stroke="none" visibility="hidden"></rect></g></svg></g></svg>